<mxfile host="app.diagrams.net" agent="Mozilla/5.0 (Windows NT 10.0; Win64; x64) AppleWebKit/537.36 (KHTML, like Gecko) Chrome/127.0.0.0 Safari/537.36" version="24.7.7">
  <diagram name="Page-1" id="v0e5_U6j95__G1Z_zTM6">
    <mxGraphModel dx="1909" dy="949" grid="1" gridSize="10" guides="1" tooltips="1" connect="1" arrows="1" fold="1" page="1" pageScale="1" pageWidth="827" pageHeight="1169" math="0" shadow="0">
      <root>
        <mxCell id="0" />
        <mxCell id="1" parent="0" />
        <mxCell id="JcuuCtVmyKIQs2Riyr9z-2" value="&lt;div&gt;&lt;b&gt;1.0&lt;/b&gt;&lt;/div&gt;" style="swimlane;childLayout=stackLayout;horizontal=1;startSize=50;horizontalStack=0;rounded=1;fontSize=14;fontStyle=0;strokeWidth=2;resizeParent=0;resizeLast=1;shadow=0;dashed=0;align=center;arcSize=4;whiteSpace=wrap;html=1;fillColor=#f5f5f5;strokeColor=#666666;gradientColor=#b3b3b3;" vertex="1" parent="1">
          <mxGeometry x="70" y="50" width="180" height="90" as="geometry">
            <mxRectangle x="330" y="210" width="60" height="50" as="alternateBounds" />
          </mxGeometry>
        </mxCell>
        <mxCell id="JcuuCtVmyKIQs2Riyr9z-53" value="&lt;b&gt;KREIRANJE NARUDŽBE&lt;/b&gt;" style="text;html=1;align=center;verticalAlign=middle;resizable=0;points=[];autosize=1;strokeColor=none;fillColor=none;" vertex="1" parent="JcuuCtVmyKIQs2Riyr9z-2">
          <mxGeometry y="50" width="180" height="40" as="geometry" />
        </mxCell>
        <mxCell id="JcuuCtVmyKIQs2Riyr9z-59" value="" style="edgeStyle=orthogonalEdgeStyle;rounded=0;orthogonalLoop=1;jettySize=auto;html=1;entryX=0.5;entryY=0;entryDx=0;entryDy=0;" edge="1" parent="1" source="JcuuCtVmyKIQs2Riyr9z-5" target="JcuuCtVmyKIQs2Riyr9z-8">
          <mxGeometry relative="1" as="geometry" />
        </mxCell>
        <mxCell id="JcuuCtVmyKIQs2Riyr9z-5" value="&lt;b&gt;1.1&lt;/b&gt;" style="swimlane;childLayout=stackLayout;horizontal=1;startSize=50;horizontalStack=0;rounded=1;fontSize=14;fontStyle=0;strokeWidth=2;resizeParent=0;resizeLast=1;shadow=0;dashed=0;align=center;arcSize=4;whiteSpace=wrap;html=1;fillColor=#f5f5f5;gradientColor=#b3b3b3;strokeColor=#666666;" vertex="1" parent="1">
          <mxGeometry x="70" y="200" width="180" height="100" as="geometry" />
        </mxCell>
        <mxCell id="JcuuCtVmyKIQs2Riyr9z-6" value="&lt;div&gt;&lt;b&gt;&lt;br&gt;&lt;/b&gt;&lt;/div&gt;&lt;b&gt;UNOS STAVKI U NARUDŽBU&lt;/b&gt;" style="align=center;strokeColor=none;fillColor=none;spacingLeft=4;fontSize=12;verticalAlign=top;resizable=0;rotatable=0;part=1;html=1;" vertex="1" parent="JcuuCtVmyKIQs2Riyr9z-5">
          <mxGeometry y="50" width="180" height="50" as="geometry" />
        </mxCell>
        <mxCell id="JcuuCtVmyKIQs2Riyr9z-7" value="" style="edgeStyle=orthogonalEdgeStyle;rounded=0;orthogonalLoop=1;jettySize=auto;html=1;" edge="1" parent="1" source="JcuuCtVmyKIQs2Riyr9z-8" target="JcuuCtVmyKIQs2Riyr9z-11">
          <mxGeometry relative="1" as="geometry" />
        </mxCell>
        <mxCell id="JcuuCtVmyKIQs2Riyr9z-8" value="&lt;div&gt;&lt;b&gt;2.0&lt;/b&gt;&lt;/div&gt;" style="swimlane;childLayout=stackLayout;horizontal=1;startSize=50;horizontalStack=0;rounded=1;fontSize=14;fontStyle=0;strokeWidth=2;resizeParent=0;resizeLast=1;shadow=0;dashed=0;align=center;arcSize=4;whiteSpace=wrap;html=1;fillColor=#f5f5f5;gradientColor=#b3b3b3;strokeColor=#666666;" vertex="1" parent="1">
          <mxGeometry x="70" y="360" width="180" height="97" as="geometry" />
        </mxCell>
        <mxCell id="JcuuCtVmyKIQs2Riyr9z-9" value="&lt;span style=&quot;font-size: 11px;&quot;&gt;&lt;b&gt;VALIDACIJA NARUDŽBE&lt;/b&gt;&lt;/span&gt;" style="text;html=1;align=center;verticalAlign=middle;resizable=0;points=[];autosize=1;strokeColor=none;fillColor=none;" vertex="1" parent="JcuuCtVmyKIQs2Riyr9z-8">
          <mxGeometry y="50" width="180" height="47" as="geometry" />
        </mxCell>
        <mxCell id="JcuuCtVmyKIQs2Riyr9z-10" value="" style="edgeStyle=orthogonalEdgeStyle;rounded=0;orthogonalLoop=1;jettySize=auto;html=1;" edge="1" parent="1" source="JcuuCtVmyKIQs2Riyr9z-11" target="JcuuCtVmyKIQs2Riyr9z-13">
          <mxGeometry relative="1" as="geometry" />
        </mxCell>
        <mxCell id="JcuuCtVmyKIQs2Riyr9z-11" value="&lt;b&gt;3.0&lt;/b&gt;" style="swimlane;childLayout=stackLayout;horizontal=1;startSize=50;horizontalStack=0;rounded=1;fontSize=14;fontStyle=0;strokeWidth=2;resizeParent=0;resizeLast=1;shadow=0;dashed=0;align=center;arcSize=4;whiteSpace=wrap;html=1;fillColor=#f5f5f5;gradientColor=#b3b3b3;strokeColor=#666666;" vertex="1" parent="1">
          <mxGeometry x="70" y="510" width="180" height="100" as="geometry" />
        </mxCell>
        <mxCell id="JcuuCtVmyKIQs2Riyr9z-12" value="&lt;span style=&quot;font-size: 11px;&quot;&gt;&lt;b&gt;OBRADA NARUDŽBE&lt;/b&gt;&lt;/span&gt;" style="text;html=1;align=center;verticalAlign=middle;resizable=0;points=[];autosize=1;strokeColor=none;fillColor=none;" vertex="1" parent="JcuuCtVmyKIQs2Riyr9z-11">
          <mxGeometry y="50" width="180" height="50" as="geometry" />
        </mxCell>
        <mxCell id="JcuuCtVmyKIQs2Riyr9z-46" value="" style="edgeStyle=orthogonalEdgeStyle;rounded=0;orthogonalLoop=1;jettySize=auto;html=1;" edge="1" parent="1" source="JcuuCtVmyKIQs2Riyr9z-13" target="JcuuCtVmyKIQs2Riyr9z-44">
          <mxGeometry relative="1" as="geometry" />
        </mxCell>
        <mxCell id="JcuuCtVmyKIQs2Riyr9z-13" value="&lt;b&gt;3.1&lt;/b&gt;" style="swimlane;childLayout=stackLayout;horizontal=1;startSize=50;horizontalStack=0;rounded=1;fontSize=14;fontStyle=0;strokeWidth=2;resizeParent=0;resizeLast=1;shadow=0;dashed=0;align=center;arcSize=4;whiteSpace=wrap;html=1;fillColor=#f5f5f5;gradientColor=#b3b3b3;strokeColor=#666666;" vertex="1" parent="1">
          <mxGeometry x="330" y="510" width="180" height="100" as="geometry" />
        </mxCell>
        <mxCell id="JcuuCtVmyKIQs2Riyr9z-14" value="&lt;div&gt;&lt;span style=&quot;font-size: 11px;&quot;&gt;&lt;b&gt;&lt;br&gt;&lt;/b&gt;&lt;/span&gt;&lt;/div&gt;&lt;span style=&quot;font-size: 11px;&quot;&gt;&lt;b&gt;ŠALJE SE U KUHINJU / ŠANK&lt;/b&gt;&lt;/span&gt;" style="align=center;strokeColor=none;fillColor=none;spacingLeft=4;fontSize=12;verticalAlign=top;resizable=0;rotatable=0;part=1;html=1;" vertex="1" parent="JcuuCtVmyKIQs2Riyr9z-13">
          <mxGeometry y="50" width="180" height="50" as="geometry" />
        </mxCell>
        <mxCell id="JcuuCtVmyKIQs2Riyr9z-15" value="&lt;b&gt;ŠANK / KUHINJA&lt;/b&gt;" style="rounded=0;whiteSpace=wrap;html=1;" vertex="1" parent="1">
          <mxGeometry x="670" y="524" width="120" height="60" as="geometry" />
        </mxCell>
        <mxCell id="JcuuCtVmyKIQs2Riyr9z-17" value="&lt;b&gt;&amp;nbsp;KONOBAR&amp;nbsp;&lt;/b&gt;" style="rounded=0;whiteSpace=wrap;html=1;" vertex="1" parent="1">
          <mxGeometry x="414" y="65" width="120" height="60" as="geometry" />
        </mxCell>
        <mxCell id="JcuuCtVmyKIQs2Riyr9z-52" value="" style="edgeStyle=orthogonalEdgeStyle;rounded=0;orthogonalLoop=1;jettySize=auto;html=1;" edge="1" parent="1" source="JcuuCtVmyKIQs2Riyr9z-44" target="JcuuCtVmyKIQs2Riyr9z-50">
          <mxGeometry relative="1" as="geometry" />
        </mxCell>
        <mxCell id="JcuuCtVmyKIQs2Riyr9z-44" value="&lt;b&gt;4.0&lt;/b&gt;" style="swimlane;childLayout=stackLayout;horizontal=1;startSize=50;horizontalStack=0;rounded=1;fontSize=14;fontStyle=0;strokeWidth=2;resizeParent=0;resizeLast=1;shadow=0;dashed=0;align=center;arcSize=4;whiteSpace=wrap;html=1;fillColor=#f5f5f5;gradientColor=#b3b3b3;strokeColor=#666666;" vertex="1" parent="1">
          <mxGeometry x="330" y="670" width="180" height="100" as="geometry" />
        </mxCell>
        <mxCell id="JcuuCtVmyKIQs2Riyr9z-45" value="&lt;div&gt;&lt;b&gt;&lt;br&gt;&lt;/b&gt;&lt;/div&gt;&lt;b&gt;KREIRANJE RAČUNA&lt;/b&gt;" style="align=center;strokeColor=none;fillColor=none;spacingLeft=4;fontSize=12;verticalAlign=top;resizable=0;rotatable=0;part=1;html=1;" vertex="1" parent="JcuuCtVmyKIQs2Riyr9z-44">
          <mxGeometry y="50" width="180" height="50" as="geometry" />
        </mxCell>
        <mxCell id="JcuuCtVmyKIQs2Riyr9z-50" value="&lt;b&gt;4.1&lt;/b&gt;" style="swimlane;childLayout=stackLayout;horizontal=1;startSize=50;horizontalStack=0;rounded=1;fontSize=14;fontStyle=0;strokeWidth=2;resizeParent=0;resizeLast=1;shadow=0;dashed=0;align=center;arcSize=4;whiteSpace=wrap;html=1;fillColor=#f5f5f5;gradientColor=#b3b3b3;strokeColor=#666666;" vertex="1" parent="1">
          <mxGeometry x="330" y="830" width="180" height="100" as="geometry" />
        </mxCell>
        <mxCell id="JcuuCtVmyKIQs2Riyr9z-77" value="" style="endArrow=classic;html=1;rounded=0;exitX=0;exitY=0.5;exitDx=0;exitDy=0;" edge="1" parent="JcuuCtVmyKIQs2Riyr9z-50" source="JcuuCtVmyKIQs2Riyr9z-63">
          <mxGeometry width="50" height="50" relative="1" as="geometry">
            <mxPoint x="280" y="220" as="sourcePoint" />
            <mxPoint x="180" y="50" as="targetPoint" />
          </mxGeometry>
        </mxCell>
        <mxCell id="JcuuCtVmyKIQs2Riyr9z-51" value="&lt;div&gt;&lt;b&gt;&lt;br&gt;&lt;/b&gt;&lt;/div&gt;&lt;b&gt;ISPIS RAČUNA&lt;/b&gt;" style="align=center;strokeColor=none;fillColor=none;spacingLeft=4;fontSize=12;verticalAlign=top;resizable=0;rotatable=0;part=1;html=1;" vertex="1" parent="JcuuCtVmyKIQs2Riyr9z-50">
          <mxGeometry y="50" width="180" height="50" as="geometry" />
        </mxCell>
        <mxCell id="JcuuCtVmyKIQs2Riyr9z-54" value="" style="endArrow=classic;html=1;rounded=0;exitX=0.504;exitY=1.1;exitDx=0;exitDy=0;exitPerimeter=0;entryX=0.5;entryY=0;entryDx=0;entryDy=0;" edge="1" parent="1" source="JcuuCtVmyKIQs2Riyr9z-53" target="JcuuCtVmyKIQs2Riyr9z-5">
          <mxGeometry width="50" height="50" relative="1" as="geometry">
            <mxPoint x="390" y="260" as="sourcePoint" />
            <mxPoint x="440" y="210" as="targetPoint" />
          </mxGeometry>
        </mxCell>
        <mxCell id="JcuuCtVmyKIQs2Riyr9z-63" value="&lt;b&gt;BLAGAJNA&lt;/b&gt;" style="whiteSpace=wrap;html=1;rounded=0;" vertex="1" parent="1">
          <mxGeometry x="670" y="850" width="120" height="60" as="geometry" />
        </mxCell>
        <mxCell id="JcuuCtVmyKIQs2Riyr9z-65" value="" style="endArrow=classic;html=1;rounded=0;entryX=1;entryY=0.5;entryDx=0;entryDy=0;exitX=0;exitY=0.5;exitDx=0;exitDy=0;" edge="1" parent="1" source="JcuuCtVmyKIQs2Riyr9z-17" target="JcuuCtVmyKIQs2Riyr9z-2">
          <mxGeometry width="50" height="50" relative="1" as="geometry">
            <mxPoint x="350" y="170" as="sourcePoint" />
            <mxPoint x="400" y="120" as="targetPoint" />
          </mxGeometry>
        </mxCell>
        <mxCell id="JcuuCtVmyKIQs2Riyr9z-66" value="Kreira novu narudžbu" style="text;html=1;align=center;verticalAlign=middle;resizable=0;points=[];autosize=1;strokeColor=none;fillColor=none;" vertex="1" parent="1">
          <mxGeometry x="274" y="65" width="140" height="30" as="geometry" />
        </mxCell>
        <mxCell id="JcuuCtVmyKIQs2Riyr9z-67" value="Konobar unosi stavke" style="text;html=1;align=center;verticalAlign=middle;resizable=0;points=[];autosize=1;strokeColor=none;fillColor=none;" vertex="1" parent="1">
          <mxGeometry x="20" y="160" width="140" height="30" as="geometry" />
        </mxCell>
        <mxCell id="JcuuCtVmyKIQs2Riyr9z-68" value="Sustav provjerava&amp;nbsp;&lt;div&gt;valjanost narudžbe&lt;/div&gt;" style="text;html=1;align=center;verticalAlign=middle;resizable=0;points=[];autosize=1;strokeColor=none;fillColor=none;" vertex="1" parent="1">
          <mxGeometry x="30" y="310" width="120" height="40" as="geometry" />
        </mxCell>
        <mxCell id="JcuuCtVmyKIQs2Riyr9z-74" value="" style="endArrow=classic;html=1;rounded=0;exitX=1;exitY=0.5;exitDx=0;exitDy=0;entryX=-0.032;entryY=0.591;entryDx=0;entryDy=0;entryPerimeter=0;" edge="1" parent="1" source="JcuuCtVmyKIQs2Riyr9z-13" target="JcuuCtVmyKIQs2Riyr9z-15">
          <mxGeometry width="50" height="50" relative="1" as="geometry">
            <mxPoint x="470" y="460" as="sourcePoint" />
            <mxPoint x="520" y="410" as="targetPoint" />
          </mxGeometry>
        </mxCell>
        <mxCell id="JcuuCtVmyKIQs2Riyr9z-76" value="" style="endArrow=classic;html=1;rounded=0;exitX=1;exitY=0;exitDx=0;exitDy=0;" edge="1" parent="1" source="JcuuCtVmyKIQs2Riyr9z-51">
          <mxGeometry width="50" height="50" relative="1" as="geometry">
            <mxPoint x="450" y="690" as="sourcePoint" />
            <mxPoint x="510" y="880" as="targetPoint" />
          </mxGeometry>
        </mxCell>
        <mxCell id="JcuuCtVmyKIQs2Riyr9z-79" value="" style="edgeStyle=elbowEdgeStyle;elbow=horizontal;endArrow=classic;html=1;curved=0;rounded=0;endSize=8;startSize=8;entryX=1;entryY=0.5;entryDx=0;entryDy=0;" edge="1" parent="1" target="JcuuCtVmyKIQs2Riyr9z-17">
          <mxGeometry width="50" height="50" relative="1" as="geometry">
            <mxPoint x="520" y="860" as="sourcePoint" />
            <mxPoint x="520" y="510" as="targetPoint" />
            <Array as="points">
              <mxPoint x="640" y="480" />
            </Array>
          </mxGeometry>
        </mxCell>
      </root>
    </mxGraphModel>
  </diagram>
</mxfile>
